<svg width="25" height="24" viewBox="0 0 25 24" fill="none" xmlns="http://www.w3.org/2000/svg">
<path d="M14.5116 4.34C14.5116 4.34 18.7266 1.47 20.2966 2.765C21.8666 4.06 19.6916 9.37 19.6916 9.37L14.5116 4.34Z" fill="#FFE500"/>
<path d="M15.1966 5.435C15.1966 5.435 18.1966 3.26 19.2666 4.135C20.3366 5.01 18.7066 8.84 18.7066 8.84L15.1966 5.435Z" fill="#FFA694"/>
<path d="M11.3916 4.34C11.3916 4.34 7.1766 1.47 5.6066 2.765C4.0366 4.06 6.2116 9.37 6.2116 9.37L11.3916 4.34Z" fill="#FFE500"/>
<path d="M20.2966 3.86C20.6249 4.17155 20.8202 4.5979 20.8416 5.05C20.9316 4.05 20.8416 3.195 20.2966 2.765C18.7266 1.47 14.5116 4.34 14.5116 4.34L15.1966 5C16.4516 4.26 19.1216 2.89 20.2966 3.86Z" fill="#FFF48C"/>
<path d="M5.60661 3.86C6.78161 2.89 9.44661 4.26 10.7066 5.005L11.3916 4.34C11.3916 4.34 7.17661 1.47 5.60661 2.765C5.08161 3.195 4.95161 4.07 5.06161 5.05C5.08303 4.5979 5.27829 4.17155 5.60661 3.86Z" fill="#FFF48C"/>
<path d="M14.5116 4.34C14.5116 4.34 18.7266 1.47 20.2966 2.765C21.8666 4.06 19.6916 9.37 19.6916 9.37L14.5116 4.34Z" stroke="#45413C" stroke-width="0.5" stroke-linecap="round" stroke-linejoin="round"/>
<path d="M11.3916 4.34C11.3916 4.34 7.1766 1.47 5.6066 2.765C4.0366 4.06 6.2116 9.37 6.2116 9.37L11.3916 4.34Z" stroke="#45413C" stroke-width="0.5" stroke-linecap="round" stroke-linejoin="round"/>
<path d="M10.7066 5.435C10.7066 5.435 7.70662 3.26 6.63662 4.135C5.56662 5.01 7.19662 8.84 7.19662 8.84L10.7066 5.435Z" fill="#FFA694"/>
<path d="M19.2666 5.26C19.4352 5.4134 19.5463 5.6198 19.5816 5.845C19.6816 5.105 19.6366 4.44 19.2666 4.135C18.2016 3.26 15.1966 5.435 15.1966 5.435L15.8866 6.105C16.8366 5.5 18.5216 4.645 19.2666 5.26Z" fill="#FF866E"/>
<path d="M6.6366 5.26C7.3816 4.645 9.0666 5.52 10.0166 6.105L10.7066 5.435C10.7066 5.435 7.7066 3.26 6.6366 4.135C6.2666 4.44 6.2216 5.105 6.3216 5.845C6.35686 5.6198 6.468 5.4134 6.6366 5.26Z" fill="#FF866E"/>
<path d="M15.1966 5.435C15.1966 5.435 18.1966 3.26 19.2666 4.135C20.3366 5.01 18.7066 8.84 18.7066 8.84L15.1966 5.435Z" stroke="#45413C" stroke-width="0.5" stroke-linecap="round" stroke-linejoin="round"/>
<path d="M10.7066 5.435C10.7066 5.435 7.70662 3.26 6.63662 4.135C5.56662 5.01 7.19662 8.84 7.19662 8.84L10.7066 5.435Z" stroke="#45413C" stroke-width="0.5" stroke-linecap="round" stroke-linejoin="round"/>
<path opacity="0.15" d="M7.4516 21.75C7.4516 21.9489 8.03106 22.1397 9.06251 22.2803C10.094 22.421 11.4929 22.5 12.9516 22.5C14.4103 22.5 15.8092 22.421 16.8407 22.2803C17.8721 22.1397 18.4516 21.9489 18.4516 21.75C18.4516 21.5511 17.8721 21.3603 16.8407 21.2197C15.8092 21.079 14.4103 21 12.9516 21C11.4929 21 10.094 21.079 9.06251 21.2197C8.03106 21.3603 7.4516 21.5511 7.4516 21.75Z" fill="#45413C"/>
<path d="M20.6166 14.455L20.1466 10.1C19.9241 8.35862 19.0669 6.76057 17.7392 5.61193C16.4116 4.46329 14.7069 3.84483 12.9516 3.875C11.1963 3.84483 9.49162 4.46329 8.164 5.61193C6.83638 6.76057 5.97919 8.35862 5.75662 10.1L5.28662 14.455C5.23874 15.0209 5.31054 15.5905 5.49736 16.1268C5.68419 16.6631 5.98184 17.154 6.37096 17.5677C6.76007 17.9813 7.23193 18.3084 7.75582 18.5276C8.2797 18.7468 8.84388 18.8533 9.41162 18.84H9.64162C10.2666 19.615 11.5116 20.145 12.9516 20.145C14.3916 20.145 15.6366 19.615 16.2616 18.84H16.4916C17.0594 18.8533 17.6235 18.7468 18.1474 18.5276C18.6713 18.3084 19.1432 17.9813 19.5323 17.5677C19.9214 17.154 20.2191 16.6631 20.4059 16.1268C20.5927 15.5905 20.6645 15.0209 20.6166 14.455Z" fill="#FFE500"/>
<path d="M5.75661 11.94C5.97925 10.1991 6.83663 8.60159 8.16437 7.45377C9.49211 6.30595 11.1968 5.68858 12.9516 5.72C14.7061 5.68969 16.4102 6.30745 17.7377 7.45507C19.0652 8.60268 19.9229 10.1995 20.1466 11.94L20.5516 15.685C20.6388 15.2811 20.6607 14.8658 20.6166 14.455L20.1466 10.1C19.923 8.35907 19.0655 6.76166 17.7381 5.61322C16.4107 4.46479 14.7066 3.84594 12.9516 3.875C11.1963 3.84483 9.4916 4.46329 8.16398 5.61193C6.83636 6.76057 5.97918 8.35862 5.75661 10.1L5.28661 14.455C5.24247 14.8658 5.26441 15.2811 5.35161 15.685L5.75661 11.94Z" fill="#FFF48C"/>
<path d="M20.6166 14.455L20.1466 10.1C19.9241 8.35862 19.0669 6.76057 17.7392 5.61193C16.4116 4.46329 14.7069 3.84483 12.9516 3.875C11.1963 3.84483 9.49162 4.46329 8.164 5.61193C6.83638 6.76057 5.97919 8.35862 5.75662 10.1L5.28662 14.455C5.23874 15.0209 5.31054 15.5905 5.49736 16.1268C5.68419 16.6631 5.98184 17.154 6.37096 17.5677C6.76007 17.9813 7.23193 18.3084 7.75582 18.5276C8.2797 18.7468 8.84388 18.8533 9.41162 18.84H9.64162C10.2666 19.615 11.5116 20.145 12.9516 20.145C14.3916 20.145 15.6366 19.615 16.2616 18.84H16.4916C17.0594 18.8533 17.6235 18.7468 18.1474 18.5276C18.6713 18.3084 19.1432 17.9813 19.5323 17.5677C19.9214 17.154 20.2191 16.6631 20.4059 16.1268C20.5927 15.5905 20.6645 15.0209 20.6166 14.455V14.455Z" stroke="#45413C" stroke-width="0.5" stroke-linecap="round" stroke-linejoin="round"/>
<path d="M14.2916 14.795C14.2122 15.0973 14.0404 15.3672 13.8002 15.5671C13.56 15.767 13.2633 15.8869 12.9516 15.91C12.6399 15.8869 12.3432 15.767 12.103 15.5671C11.8628 15.3672 11.691 15.0973 11.6116 14.795C11.6116 14.455 12.2116 14.18 12.9516 14.18C13.6916 14.18 14.2916 14.455 14.2916 14.795Z" fill="#FF866E"/>
<path d="M12.9516 14.93C13.3604 14.9106 13.7652 15.0171 14.1116 15.235C14.2118 15.1082 14.2741 14.9557 14.2916 14.795C14.2916 14.455 13.6916 14.18 12.9516 14.18C12.2116 14.18 11.6116 14.455 11.6116 14.795C11.6291 14.9557 11.6915 15.1082 11.7916 15.235C12.138 15.0171 12.5428 14.9106 12.9516 14.93Z" fill="#FFA694"/>
<path d="M14.2916 14.795C14.2122 15.0973 14.0404 15.3672 13.8002 15.5671C13.56 15.767 13.2633 15.8869 12.9516 15.91C12.6399 15.8869 12.3432 15.767 12.103 15.5671C11.8628 15.3672 11.691 15.0973 11.6116 14.795C11.6116 14.455 12.2116 14.18 12.9516 14.18C13.6916 14.18 14.2916 14.455 14.2916 14.795Z" stroke="#45413C" stroke-width="0.5" stroke-linecap="round" stroke-linejoin="round"/>
<path d="M8.91161 12C8.91161 12.1137 8.94534 12.2249 9.00852 12.3194C9.0717 12.414 9.1615 12.4877 9.26657 12.5312C9.37164 12.5747 9.48725 12.5861 9.59879 12.5639C9.71033 12.5418 9.81278 12.487 9.8932 12.4066C9.97361 12.3262 10.0284 12.2237 10.0506 12.1122C10.0728 12.0006 10.0614 11.885 10.0178 11.78C9.97432 11.6749 9.90062 11.5851 9.80607 11.5219C9.71151 11.4587 9.60034 11.425 9.48661 11.425C9.41092 11.4243 9.33585 11.4387 9.26578 11.4674C9.19572 11.4961 9.13207 11.5384 9.07854 11.5919C9.02501 11.6454 8.98268 11.7091 8.95402 11.7792C8.92536 11.8492 8.91095 11.9243 8.91161 12Z" fill="#45413C" stroke="#45413C" stroke-width="0.5" stroke-linecap="round" stroke-linejoin="round"/>
<path d="M16.9916 12C16.9916 12.1137 16.9579 12.2249 16.8947 12.3194C16.8315 12.414 16.7417 12.4877 16.6367 12.5312C16.5316 12.5747 16.416 12.5861 16.3044 12.5639C16.1929 12.5418 16.0904 12.487 16.01 12.4066C15.9296 12.3262 15.8748 12.2237 15.8527 12.1122C15.8305 12.0006 15.8419 11.885 15.8854 11.78C15.9289 11.6749 16.0026 11.5851 16.0972 11.5219C16.1917 11.4587 16.3029 11.425 16.4166 11.425C16.4923 11.4243 16.5674 11.4387 16.6374 11.4674C16.7075 11.4961 16.7712 11.5384 16.8247 11.5919C16.8782 11.6454 16.9205 11.7091 16.9492 11.7792C16.9779 11.8492 16.9923 11.9243 16.9916 12Z" fill="#45413C" stroke="#45413C" stroke-width="0.5" stroke-linecap="round" stroke-linejoin="round"/>
<path d="M10.8416 16.65C10.7941 16.65 10.7472 16.6603 10.7041 16.6802C10.6609 16.7 10.6226 16.729 10.5916 16.765C10.5612 16.8004 10.5387 16.842 10.5258 16.8868C10.5128 16.9317 10.5097 16.9788 10.5166 17.025C10.6144 17.6 10.9126 18.1218 11.3583 18.498C11.8039 18.8743 12.3684 19.0807 12.9516 19.0807C13.5349 19.0807 14.0993 18.8743 14.545 18.498C14.9906 18.1218 15.2888 17.6 15.3866 17.025C15.3935 16.9788 15.3904 16.9317 15.3775 16.8868C15.3645 16.842 15.3421 16.8004 15.3116 16.765C15.2807 16.729 15.2423 16.7 15.1992 16.6802C15.156 16.6603 15.1091 16.65 15.0616 16.65H10.8416Z" fill="#FFB0CA" stroke="#45413C" stroke-width="0.5" stroke-linecap="round" stroke-linejoin="round"/>
<path d="M14.8916 18.16C14.2945 17.8448 13.6265 17.6882 12.9516 17.705C12.2766 17.6882 11.6087 17.8448 11.0116 18.16C11.246 18.4484 11.5418 18.6809 11.8774 18.8406C12.213 19.0003 12.5799 19.0832 12.9516 19.0832C13.3232 19.0832 13.6902 19.0003 14.0258 18.8406C14.3614 18.6809 14.6572 18.4484 14.8916 18.16Z" fill="#FF87AF" stroke="#45413C" stroke-width="0.5" stroke-linecap="round" stroke-linejoin="round"/>
<path d="M16.5066 15.09L19.2166 14.675" stroke="#45413C" stroke-width="0.5" stroke-linecap="round" stroke-linejoin="round"/>
<path d="M16.5066 16.32L19.2166 16.695" stroke="#45413C" stroke-width="0.5" stroke-linecap="round" stroke-linejoin="round"/>
<path d="M9.39661 15.09L6.68661 14.675" stroke="#45413C" stroke-width="0.5" stroke-linecap="round" stroke-linejoin="round"/>
<path d="M9.39661 16.32L6.68661 16.695" stroke="#45413C" stroke-width="0.5" stroke-linecap="round" stroke-linejoin="round"/>
</svg>
