<svg width="32" height="32" viewBox="0 0 32 32" fill="none" xmlns="http://www.w3.org/2000/svg">
<g clip-path="url(#clip0_905_65)">
<rect x="32" width="32" height="32" transform="rotate(90 32 0)" fill="#8360C3"/>
<path d="M18.0796 5.78677C18.0796 5.78677 23.6996 1.9601 25.7929 3.68677C27.8863 5.41344 24.9863 12.4934 24.9863 12.4934L18.0796 5.78677Z" fill="#FFE500"/>
<path d="M18.9932 7.24685C18.9932 7.24685 22.9932 4.34685 24.4198 5.51352C25.8465 6.68019 23.6732 11.7869 23.6732 11.7869L18.9932 7.24685Z" fill="#FFA694"/>
<path d="M13.9197 5.78677C13.9197 5.78677 8.29972 1.9601 6.20639 3.68677C4.11305 5.41344 7.01305 12.4934 7.01305 12.4934L13.9197 5.78677Z" fill="#FFE500"/>
<path d="M25.7929 5.14677C26.2307 5.56217 26.491 6.13063 26.5196 6.73344C26.6396 5.4001 26.5196 4.2601 25.7929 3.68677C23.6996 1.9601 18.0796 5.78677 18.0796 5.78677L18.9929 6.66677C20.6663 5.6801 24.2263 3.85344 25.7929 5.14677Z" fill="#FFF48C"/>
<path d="M6.20648 5.14677C7.77314 3.85344 11.3265 5.6801 13.0065 6.67344L13.9198 5.78677C13.9198 5.78677 8.29981 1.9601 6.20648 3.68677C5.50648 4.2601 5.33314 5.42677 5.47981 6.73344C5.50837 6.13063 5.76872 5.56217 6.20648 5.14677V5.14677Z" fill="#FFF48C"/>
<path d="M18.0796 5.78677C18.0796 5.78677 23.6996 1.9601 25.7929 3.68677C27.8863 5.41344 24.9863 12.4934 24.9863 12.4934L18.0796 5.78677Z" stroke="#45413C" stroke-width="0.5" stroke-linecap="round" stroke-linejoin="round"/>
<path d="M13.9197 5.78677C13.9197 5.78677 8.29972 1.9601 6.20639 3.68677C4.11305 5.41344 7.01305 12.4934 7.01305 12.4934L13.9197 5.78677Z" stroke="#45413C" stroke-width="0.5" stroke-linecap="round" stroke-linejoin="round"/>
<path d="M13.0067 7.24685C13.0067 7.24685 9.00666 4.34685 7.57999 5.51352C6.15332 6.68019 8.32666 11.7869 8.32666 11.7869L13.0067 7.24685Z" fill="#FFA694"/>
<path d="M24.4198 7.01352C24.6446 7.21805 24.7928 7.49325 24.8398 7.79352C24.9732 6.80685 24.9132 5.92019 24.4198 5.51352C22.9998 4.34685 18.9932 7.24685 18.9932 7.24685L19.9132 8.14019C21.1798 7.33352 23.4265 6.19352 24.4198 7.01352Z" fill="#FF866E"/>
<path d="M7.58 7.01352C8.57334 6.19352 10.82 7.36019 12.0867 8.14019L13.0067 7.24685C13.0067 7.24685 9.00667 4.34685 7.58 5.51352C7.08667 5.92019 7.02667 6.80685 7.16 7.79352C7.20701 7.49325 7.3552 7.21805 7.58 7.01352V7.01352Z" fill="#FF866E"/>
<path d="M18.9932 7.24685C18.9932 7.24685 22.9932 4.34685 24.4198 5.51352C25.8465 6.68019 23.6732 11.7869 23.6732 11.7869L18.9932 7.24685Z" stroke="#45413C" stroke-width="0.5" stroke-linecap="round" stroke-linejoin="round"/>
<path d="M13.0067 7.24685C13.0067 7.24685 9.00666 4.34685 7.57999 5.51352C6.15332 6.68019 8.32666 11.7869 8.32666 11.7869L13.0067 7.24685Z" stroke="#45413C" stroke-width="0.5" stroke-linecap="round" stroke-linejoin="round"/>
<path opacity="0.15" d="M8.6665 29C8.6665 29.2652 9.43912 29.5196 10.8144 29.7071C12.1897 29.8946 14.0549 30 15.9998 30C17.9448 30 19.81 29.8946 21.1853 29.7071C22.5606 29.5196 23.3332 29.2652 23.3332 29C23.3332 28.7348 22.5606 28.4804 21.1853 28.2929C19.81 28.1054 17.9448 28 15.9998 28C14.0549 28 12.1897 28.1054 10.8144 28.2929C9.43912 28.4804 8.6665 28.7348 8.6665 29V29Z" fill="#45413C"/>
<path d="M26.22 19.2736L25.5933 13.4669C25.2965 11.1451 24.1536 9.01435 22.3834 7.48284C20.6133 5.95132 18.3403 5.12671 16 5.16693C13.6596 5.12671 11.3866 5.95132 9.61646 7.48284C7.8463 9.01435 6.70338 11.1451 6.40662 13.4669L5.77995 19.2736C5.7161 20.0281 5.81184 20.7876 6.06094 21.5027C6.31003 22.2177 6.70691 22.8723 7.22573 23.4238C7.74455 23.9753 8.37369 24.4114 9.07221 24.7037C9.77072 24.996 10.523 25.1379 11.28 25.1203H11.5866C12.42 26.1536 14.08 26.8603 16 26.8603C17.92 26.8603 19.58 26.1536 20.4133 25.1203H20.72C21.4769 25.1379 22.2292 24.996 22.9277 24.7037C23.6262 24.4114 24.2554 23.9753 24.7742 23.4238C25.293 22.8723 25.6899 22.2177 25.939 21.5027C26.1881 20.7876 26.2838 20.0281 26.22 19.2736V19.2736Z" fill="#FFE500"/>
<path d="M6.40668 15.9203C6.70354 13.599 7.84671 11.469 9.61703 9.93862C11.3873 8.4082 13.6602 7.58504 16 7.62693C18.3394 7.58651 20.6115 8.4102 22.3815 9.94035C24.1515 11.4705 25.2951 13.5996 25.5933 15.9203L26.1333 20.9136C26.2496 20.3751 26.2789 19.8214 26.22 19.2736L25.5933 13.4669C25.2952 11.1457 24.1519 9.01581 22.382 7.48456C20.6122 5.95332 18.34 5.12818 16 5.16693C13.6596 5.12671 11.3867 5.95132 9.61651 7.48284C7.84635 9.01435 6.70343 11.1451 6.40668 13.4669L5.78001 19.2736C5.72116 19.8214 5.75042 20.3751 5.86668 20.9136L6.40668 15.9203Z" fill="#FFF48C"/>
<path d="M26.22 19.2736L25.5933 13.4669C25.2965 11.1451 24.1536 9.01435 22.3834 7.48284C20.6133 5.95132 18.3403 5.12671 16 5.16693C13.6596 5.12671 11.3866 5.95132 9.61646 7.48284C7.8463 9.01435 6.70338 11.1451 6.40662 13.4669L5.77995 19.2736C5.7161 20.0281 5.81184 20.7876 6.06094 21.5027C6.31003 22.2177 6.70691 22.8723 7.22573 23.4238C7.74455 23.9753 8.37369 24.4114 9.07221 24.7037C9.77072 24.996 10.523 25.1379 11.28 25.1203H11.5866C12.42 26.1536 14.08 26.8603 16 26.8603C17.92 26.8603 19.58 26.1536 20.4133 25.1203H20.72C21.4769 25.1379 22.2292 24.996 22.9277 24.7037C23.6262 24.4114 24.2554 23.9753 24.7742 23.4238C25.293 22.8723 25.6899 22.2177 25.939 21.5027C26.1881 20.7876 26.2838 20.0281 26.22 19.2736V19.2736Z" stroke="#45413C" stroke-width="0.5" stroke-linecap="round" stroke-linejoin="round"/>
<path d="M17.7867 19.7267C17.6809 20.1298 17.4518 20.4897 17.1315 20.7563C16.8112 21.0228 16.4156 21.1826 16 21.2134C15.5845 21.1826 15.1889 21.0228 14.8686 20.7563C14.5483 20.4897 14.3192 20.1298 14.2134 19.7267C14.2134 19.2734 15.0134 18.9067 16 18.9067C16.9867 18.9067 17.7867 19.2734 17.7867 19.7267Z" fill="#FF866E"/>
<path d="M16 19.9067C16.5451 19.8809 17.0849 20.0228 17.5467 20.3134C17.6802 20.1443 17.7634 19.941 17.7867 19.7267C17.7867 19.2734 16.9867 18.9067 16 18.9067C15.0134 18.9067 14.2134 19.2734 14.2134 19.7267C14.2367 19.941 14.3198 20.1443 14.4534 20.3134C14.9152 20.0228 15.455 19.8809 16 19.9067V19.9067Z" fill="#FFA694"/>
<path d="M17.7867 19.7267C17.6809 20.1298 17.4518 20.4897 17.1315 20.7563C16.8112 21.0228 16.4156 21.1826 16 21.2134C15.5845 21.1826 15.1889 21.0228 14.8686 20.7563C14.5483 20.4897 14.3192 20.1298 14.2134 19.7267C14.2134 19.2734 15.0134 18.9067 16 18.9067C16.9867 18.9067 17.7867 19.2734 17.7867 19.7267Z" stroke="#45413C" stroke-width="0.5" stroke-linecap="round" stroke-linejoin="round"/>
<path d="M10.6133 16.0001C10.6133 16.1517 10.6583 16.3 10.7425 16.426C10.8268 16.5521 10.9465 16.6504 11.0866 16.7084C11.2267 16.7664 11.3808 16.7816 11.5295 16.752C11.6783 16.7224 11.8149 16.6494 11.9221 16.5422C12.0293 16.435 12.1023 16.2984 12.1319 16.1497C12.1615 16.0009 12.1463 15.8468 12.0883 15.7067C12.0303 15.5666 11.932 15.4469 11.8059 15.3626C11.6798 15.2784 11.5316 15.2334 11.38 15.2334C11.279 15.2325 11.179 15.2518 11.0855 15.29C10.9921 15.3282 10.9072 15.3846 10.8359 15.456C10.7645 15.5274 10.7081 15.6122 10.6699 15.7057C10.6316 15.7991 10.6124 15.8992 10.6133 16.0001V16.0001Z" fill="#45413C" stroke="#45413C" stroke-width="0.5" stroke-linecap="round" stroke-linejoin="round"/>
<path d="M21.3864 16.0001C21.3864 16.1517 21.3414 16.3 21.2572 16.426C21.1729 16.5521 21.0532 16.6504 20.9131 16.7084C20.773 16.7664 20.6188 16.7816 20.4701 16.752C20.3214 16.7224 20.1848 16.6494 20.0776 16.5422C19.9704 16.435 19.8973 16.2984 19.8678 16.1497C19.8382 16.0009 19.8534 15.8468 19.9114 15.7067C19.9694 15.5666 20.0677 15.4469 20.1938 15.3626C20.3198 15.2784 20.4681 15.2334 20.6197 15.2334C20.7206 15.2325 20.8207 15.2518 20.9141 15.29C21.0076 15.3282 21.0924 15.3846 21.1638 15.456C21.2352 15.5274 21.2916 15.6122 21.3298 15.7057C21.368 15.7991 21.3873 15.8992 21.3864 16.0001V16.0001Z" fill="#45413C" stroke="#45413C" stroke-width="0.5" stroke-linecap="round" stroke-linejoin="round"/>
<path d="M13.1866 22.2002C13.1233 22.2003 13.0608 22.214 13.0032 22.2405C12.9457 22.2669 12.8946 22.3055 12.8533 22.3535C12.8127 22.4007 12.7828 22.4561 12.7655 22.516C12.7483 22.5758 12.7441 22.6386 12.7533 22.7002C12.8838 23.4668 13.2813 24.1626 13.8755 24.6642C14.4697 25.1659 15.2223 25.4411 16 25.4411C16.7776 25.4411 17.5302 25.1659 18.1244 24.6642C18.7187 24.1626 19.1162 23.4668 19.2466 22.7002C19.2559 22.6386 19.2517 22.5758 19.2344 22.516C19.2172 22.4561 19.1872 22.4007 19.1466 22.3535C19.1054 22.3055 19.0542 22.2669 18.9967 22.2405C18.9392 22.214 18.8766 22.2003 18.8133 22.2002H13.1866Z" fill="#FFB0CA" stroke="#45413C" stroke-width="0.5" stroke-linecap="round" stroke-linejoin="round"/>
<path d="M18.5864 24.2133C17.7903 23.793 16.8997 23.5842 15.9998 23.6066C15.0998 23.5842 14.2092 23.793 13.4131 24.2133C13.7256 24.5978 14.12 24.9078 14.5675 25.1208C15.0149 25.3337 15.5042 25.4442 15.9998 25.4442C16.4953 25.4442 16.9846 25.3337 17.4321 25.1208C17.8795 24.9078 18.2739 24.5978 18.5864 24.2133V24.2133Z" fill="#FF87AF" stroke="#45413C" stroke-width="0.5" stroke-linecap="round" stroke-linejoin="round"/>
<path d="M20.7397 20.1202L24.3531 19.5669" stroke="#45413C" stroke-width="0.5" stroke-linecap="round" stroke-linejoin="round"/>
<path d="M20.7397 21.7603L24.3531 22.2603" stroke="#45413C" stroke-width="0.5" stroke-linecap="round" stroke-linejoin="round"/>
<path d="M11.2598 20.1202L7.64648 19.5669" stroke="#45413C" stroke-width="0.5" stroke-linecap="round" stroke-linejoin="round"/>
<path d="M11.2598 21.7603L7.64648 22.2603" stroke="#45413C" stroke-width="0.5" stroke-linecap="round" stroke-linejoin="round"/>
</g>
<defs>
<clipPath id="clip0_905_65">
<rect width="32" height="32" fill="white"/>
</clipPath>
</defs>
</svg>
